<svg xmlns="http://www.w3.org/2000/svg" style="border: 0 !important; clip: rect(0 0 0 0) !important; height: 1px !important; margin: -1px !important; overflow: hidden !important; padding: 0 !important; position: absolute !important; width: 1px !important;" class="root-svg-symbols-element">
    <symbol id="card" viewBox="-49 141 512 512">
      <g fill="currentColor"><path d="M449.4 316.7L287.3 154.6c-8.8-8.8-20.4-13.6-32.9-13.6-12.4 0-24.1 4.8-32.9 13.6l-257 257C-44.2 420.3-49 432-49 444.4c0 12.4 4.8 24.1 13.6 32.9l20 20L119 631.7h-18.6c-5.9 0-10.7 4.8-10.7 10.7 0 5.9 4.8 10.7 10.7 10.7h213.3c5.9 0 10.7-4.8 10.7-10.7 0-5.9-4.8-10.7-10.7-10.7H200.2l249.2-249.2c18.1-18.2 18.1-47.7 0-65.8zm-15.1 50.6l-257 257c-4.7 4.7-11 7.3-17.7 7.3h-.1c-6.7 0-13-2.6-17.7-7.3L7.2 489.7 254 242.9c4.2-4.2 4.2-10.9 0-15.1-4.2-4.2-10.9-4.2-15.1 0L-7.9 474.7l-12.5-12.5c-4.7-4.7-7.3-11-7.3-17.8 0-6.7 2.6-13.1 7.3-17.8l257-257c4.7-4.7 11-7.3 17.8-7.3 6.7 0 13.1 2.6 17.8 7.3l57.7 57.7L83.1 474.2c-4.2 4.2-4.2 10.9 0 15.1 2.1 2.1 4.8 3.1 7.5 3.1s5.5-1 7.5-3.1L345 242.5l89.3 89.3c9.8 9.8 9.8 25.7 0 35.5z"/><path d="M213.8 449.1c-4.2-4.2-10.9-4.2-15.1 0L114.8 533c-4.2 4.2-4.2 10.9 0 15.1 2.1 2.1 4.8 3.1 7.5 3.1s5.5-1 7.5-3.1l83.9-83.9c4.3-4.2 4.3-11 .1-15.1zm-34.4 79.6L145 563.2c-4.2 4.2-4.2 10.9 0 15.1 2.1 2.1 4.8 3.1 7.5 3.1s5.5-1 7.5-3.1l34.4-34.4c4.2-4.2 4.2-10.9 0-15.1-4.1-4.2-10.9-4.2-15-.1zm31.7-31.6l-4.5 4.5c-4.2 4.2-4.2 10.9 0 15.1 2.1 2.1 4.8 3.1 7.5 3.1s5.5-1 7.5-3.1l4.5-4.5c4.2-4.2 4.2-10.9 0-15.1-4.1-4.2-10.9-4.2-15 0zm147-192.3c-2-2-4.7-3.1-7.5-3.1s-5.5 1.1-7.5 3.1L297.7 350c-2 2-3.1 4.7-3.1 7.5s1.1 5.5 3.1 7.5l30.2 30.2c2.1 2.1 4.8 3.1 7.5 3.1s5.5-1 7.5-3.1l45.3-45.3c4.2-4.2 4.2-10.9 0-15.1l-30.1-30zm-22.7 67.9l-15.1-15.1 30.2-30.2 15.1 15.1-30.2 30.2zm-64.1-151.5c2.7 0 5.5-1 7.5-3.1l4.5-4.5c4.2-4.2 4.2-10.9 0-15.1-4.2-4.2-10.9-4.2-15.1 0l-4.5 4.5c-4.2 4.2-4.2 10.9 0 15.1 2.2 2 4.9 3.1 7.6 3.1zM58.2 499.1l-4.5 4.5c-4.2 4.2-4.2 10.9 0 15.1 2.1 2.1 4.8 3.1 7.5 3.1s5.5-1 7.5-3.1l4.5-4.5c4.2-4.2 4.2-10.9 0-15.1-4.1-4.2-10.8-4.2-15 0z"/></g>
    </symbol>
    <symbol id="caret-down" viewBox="0 0 28.3 17">
      <path fill="currentColor" d="M14.2 16.3c-.5 0-1-.2-1.4-.6L.6 3.6 3.4.8l10.7 10.7L24.9.7l2.8 2.8-12.1 12.2c-.4.4-.9.6-1.4.6z"/>
    </symbol>
    <symbol id="caret-right" viewBox="20.6 19.2 40.4 66.8">
      <path fill="currentColor" d="M30.5 86l-9.9-9.9 23.5-23.5-23.5-23.5 9.9-9.9L59 47.7c2.7 2.7 2.7 7.2 0 9.9L30.5 86z"/>
    </symbol>
    <symbol id="chevron-circle-down" viewBox="0 0 24 28">
      <path fill="currentColor" d="M12.703 20.297l7.094-7.094a.99.99 0 0 0 0-1.406l-1.594-1.594a.99.99 0 0 0-1.406 0L12 15l-4.797-4.797a.99.99 0 0 0-1.406 0l-1.594 1.594a.99.99 0 0 0 0 1.406l7.094 7.094a.99.99 0 0 0 1.406 0zM24 14c0 6.625-5.375 12-12 12S0 20.625 0 14 5.375 2 12 2s12 5.375 12 12z"/>
    </symbol>
    <symbol id="close" viewBox="0 0 114.4 114.4">
      <g fill="currentColor"><path d="M95.728 114.384L.058 18.714 18.796-.026l95.67 95.67z"/><path d="M114.384 18.654l-95.67 95.671-18.74-18.738 95.67-95.67z"/></g>
    </symbol>
<!--     <symbol id="flag-ie" viewBox="232 -149.3 512 341.3">
      <path fill="#04B038" d="M232-149.3h170.7V192H232z"/><path fill="#FFF" d="M402.7-149.3h170.7V192H402.7z"/><path fill="#FF801F" d="M573.3-149.3H744V192H573.3z"/>
    </symbol> -->
    <!-- <symbol id="flag-uk" viewBox="-49 226.3 512 341.3">
      <g fill="#F0F0F0"><path d="M-49 226.3h512v341.3H-49zm.1 178v-1.5 1.5z"/><path d="M-48.6 411.2c0-.5-.1-.9-.1-1.4 0 .5.1 1 .1 1.4zm-.3-20v-1.5 1.5zm446.7 176.5c.5-.6 1.1-1.2 1.6-1.8-.5.6-1.1 1.2-1.6 1.8zM-48.7 384.2c0-.5.1-.9.1-1.4 0 .4-.1.9-.1 1.4zm1.2 40.6c-.1-.8-.2-1.7-.3-2.5.1.9.2 1.7.3 2.5zm-.7-7.3c-.1-.7-.1-1.4-.2-2.1.1.7.2 1.4.2 2.1zm509.7-48.4c.1.8.2 1.7.3 2.5-.1-.8-.2-1.6-.3-2.5zm1.1 13.7c0 .5.1.9.1 1.4 0-.5-.1-1-.1-1.4zm-.4-6.3c.1.7.1 1.4.2 2.1-.1-.7-.2-1.4-.2-2.1zm-.4 45.9c-.1.8-.2 1.7-.3 2.5.1-.9.2-1.7.3-2.5zm-510.1-43.8c.1-.7.1-1.4.2-2.1-.1.7-.2 1.4-.2 2.1zm.5-7c.1-.8.2-1.7.3-2.5-.1.9-.2 1.7-.3 2.5zm510.7 19.6v-1.5 1.5zm0 11.6zm-222.5 27.6v137.3h33.4V511l56.7 56.7h47.2L273.8 463.8h31.5l97.8 97.8-3.6 4.2c3.7-4.2 7.2-8.5 10.6-13l-89.1-89h133.2c3.1-11.7 5.5-23.7 7-36-.1.9-.2 1.7-.3 2.6H240.4zm222.3-20.6c0 .5-.1.9-.1 1.4 0-.4.1-.9.1-1.4zm-.4 5.6c-.1.7-.1 1.4-.2 2.1.1-.7.2-1.4.2-2.1z"/></g><path d="M3.9 241.1l-14.8-14.8H-49v103.9H93zm450.3 89.1h8.8V226.3h-38.1l-14.8 14.8-89.1 89.1zM-40.2 463.8H-49v103.9h38.1l14.8-14.8L93 463.8zm370.6-237.5h-56.6V283zM83.6 567.7h56.6V511zm56.6-341.4H83.6l56.6 56.7zm133.6 341.4h56.6L273.8 511zm136.3-14.8l14.8 14.8H463V463.8H321z" fill="#0052B4"/><g fill="#D80027"><path d="M462.7 384.2c0-.5-.1-.9-.1-1.4l-.3-4.2c-.1-.7-.1-1.4-.2-2.1-.1-1.6-.3-3.2-.4-4.8-.1-.8-.2-1.7-.3-2.5l-.3-3c-.1-.9-.2-1.7-.3-2.6H240.4V226.3h-66.8v137.3H-46.8c-.1.9-.2 1.7-.3 2.6l-.3 3c-.1.8-.2 1.7-.3 2.5-.2 1.6-.3 3.2-.4 4.8-.1.7-.1 1.4-.2 2.1l-.3 4.2c0 .5-.1.9-.1 1.4-.1 1.8-.2 3.7-.2 5.5v1.5c0 1.9-.1 3.9-.1 5.8s0 3.9.1 5.8v1.5c.1 1.8.1 3.7.2 5.5 0 .5.1.9.1 1.4l.3 4.2c.1.7.1 1.4.2 2.1.1 1.6.3 3.2.4 4.8.1.8.2 1.7.3 2.5l.3 3c.1.9.2 1.7.3 2.6h220.4v137.3h66.8V430.4h220.4c.1-.9.2-1.7.3-2.6l.3-3c.1-.8.2-1.7.3-2.5.2-1.6.3-3.2.4-4.8.1-.7.1-1.4.2-2.1l.3-4.2c0-.5.1-.9.1-1.4.1-1.8.2-3.7.2-5.5v-1.5c0-1.9.1-3.9.1-5.8s0-3.9-.1-5.8v-1.5c-.1-1.8-.1-3.7-.2-5.5z"/><path d="M305.3 463.8h-31.5l103.9 103.9h20.1c.5-.6 1.1-1.2 1.6-1.8l3.6-4.2-97.7-97.9zm-165.1 0L36.3 567.7h31.5l72.4-72.4zm0-133.6L36.3 226.3H4.9l6 6.1 97.8 97.8zm133.6 0l103.9-103.9h-31.5l-72.4 72.4z"/></g>
    </symbol> -->
<!--     <symbol id="google-store" viewBox="231 -14.2 120.9 129.2">
      <path fill="#FFD400" d="M320.2 70.3c15.3-8.4 27-14.8 28-15.3 3.2-1.7 6.5-6.2 0-9.7-2.1-1.1-13.4-7.3-28-15.3l-20.1 20.2 20.1 20.1z"/><path fill="#F33" d="M300.1 50.2l-64.2 64.7c1.5.2 3.2-.2 5.2-1.3 4.2-2.3 48.8-26.7 79.1-43.3l-20.1-20.1z"/><path fill="#48FF48" d="M300.1 50.2L320.2 30s-74.6-40.7-79.1-43.1c-1.7-1-3.6-1.3-5.3-1l64.3 64.3z"/><path fill="#3BCCFF" d="M300.1 50.2l-64.3-64.3c-2.6.6-4.8 2.9-4.8 7.6v113.8c0 4.3 1.7 7.4 4.9 7.7l64.2-64.8z"/>
    </symbol> -->
<!--     <symbol id="ios" viewBox="0 0 101 124">
      <path d="M84.3 65.9c-.2-15.7 12.8-23.2 13.4-23.6C90.4 31.6 79.1 30.2 75.1 30c-9.7-1-18.8 5.7-23.7 5.7-4.9 0-12.4-5.5-20.5-5.4-10.5.2-20.2 6.1-25.6 15.5-10.9 19-2.8 47.1 7.9 62.5 5.2 7.5 11.4 16 19.6 15.7 7.9-.3 10.8-5.1 20.3-5.1s12.2 5.1 20.5 4.9c8.4-.2 13.8-7.7 19-15.2 6-8.7 8.4-17.2 8.6-17.6-.4-.1-16.7-6.4-16.9-25.1zM68.7 19.8C73.1 14.6 76 7.3 75.2 0 69 .3 61.4 4.2 56.9 9.4c-4 4.6-7.5 12.1-6.6 19.2 7 .5 14.1-3.6 18.4-8.8zm0 0"/>
    </symbol> -->
<!--     <symbol id="paypal" viewBox="-6.8 141 427.6 512">
      <path fill="#002987" d="M379.9 273.3c.9-7 1.3-14.2 1.3-21.5 0-61.2-49.6-110.8-110.8-110.8H85.3c-11.6 0-21.6 8.4-23.5 19.9L-6.5 566.4c-2.4 14.5 8.8 27.8 23.5 27.8h67.7c11.6 0 21.8-8.4 23.7-19.9 0 0 .1-.7.3-1.9l-9.4 56.1C97.1 641.3 107 653 120 653h59.2c10.3 0 19-7.4 20.7-17.5l16.8-100c2.9-17.2 17.8-29.9 35.3-29.9h15.6c84.5 0 153.1-68.5 153.1-153.1.1-32.7-16.1-61.6-40.8-79.2z"/><path fill="#0085CC" d="M379.9 273.3c-10.6 86.2-84 152.9-173.1 152.9h-51.7c-11.7 0-21.7 7.8-24.9 18.7L99.4 628.5c-2.2 12.8 7.7 24.5 20.7 24.5h59.2c10.3 0 19-7.4 20.7-17.5l16.8-100c2.9-17.2 17.8-29.9 35.3-29.9h15.6c84.5 0 153.1-68.5 153.1-153.1 0-32.7-16.2-61.6-40.9-79.2z"/><path fill="#00186A" d="M155.1 426.2h51.7c89 0 162.5-66.7 173.1-152.9-15.9-11.3-35.3-18-56.3-18H188.7c-15.4 0-28.5 11.1-31 26.2l-27.5 163.4c3.2-10.9 13.3-18.7 24.9-18.7z"/>
    </symbol> -->
    <symbol id="question" viewBox="-33.7 46.2 6 9">
      <path fill="currentColor" d="M-33.3 49.1c0-1.7 1-2.7 2.7-2.7 1.6 0 2.6.7 2.6 2.1 0 1.8-1.8 2-1.8 3.5h-1.5c0-1.9 1.5-2 1.5-3.1-.1-.7-.4-.9-.9-.9-.6 0-1 .3-1 1.1h-1.6zm3.7 4.8c0 .6-.4 1-1 1s-1-.4-1-1 .4-1 1-1 1 .4 1 1z"/>
    </symbol>
<!--     <symbol id="star-empty" viewBox="-7 9.8 85 82.2">
      <path fill="currentColor" d="M78 41.4l-29.4-4.3-13.1-26.6-13.1 26.6-29.3 4.3 21.2 20.7-5 29.2 26.2-13.8 26.3 13.8-5.1-29.2L78 41.4zM35.5 71.9L15.9 82.2l3.7-21.8L3.8 44.9l21.9-3.2 9.8-19.8 9.8 19.8 22 3.2-16 15.5 3.8 21.8-19.6-10.3z"/>
    </symbol>
    <symbol id="star-half" viewBox="-7 9.8 85 82.2">
      <path fill="currentColor" d="M78 41.4l-29.4-4.3-13.1-26.6-13.1 26.6-29.3 4.3 21.2 20.7-5 29.2 26.2-13.8 26.3 13.8-5.1-29.2L78 41.4zM35.5 21.8l9.8 19.8 22 3.2-16 15.6 3.8 21.8-19.6-10.3"/>
    </symbol>
    <symbol id="star" viewBox="0 0 85 82.2">
      <path fill="currentColor" d="M42.5.7l13.1 26.6L85 31.6 63.7 52.3l5.1 29.2-26.3-13.8-26.2 13.8 5-29.2L.1 31.6l29.3-4.3z"/>
    </symbol> -->
<!--     <symbol id="thumb-down" viewBox="157 349.5 100 95">
      <path d="M164.9 380.2c-1.5.3-2.8 1-3.8 2.1-1.4 1.4-2.2 3.3-2.2 5.3 0 4.2 3.4 7.6 7.6 7.6h-2c-2.1 0-4 .8-5.3 2.2-1.4 1.4-2.2 3.2-2.2 5.3 0 4.2 3.5 7.6 7.7 7.6h21.1v21c.2 7.2 6.3 12.9 13.5 12.9h5.5v-12.3c0-2.4.5-4.8 1.5-7.1l5.8-12.4c9.5-2.5 14.5-7.4 17.2-12.1V357l-11.9-4.5c-4.8-1.8-10-2.7-15.1-2.7h-31.9c-2.1 0-4 .8-5.3 2.2-1.4 1.4-2.2 3.3-2.2 5.3 0 4.2 3.4 7.6 7.6 7.6h-2c-2.1 0-4 .8-5.3 2.2-1.4 1.4-2.2 3.3-2.2 5.3 0 4.1 3.3 7.5 7.4 7.6h-1.8c-.6 0-1.2.1-1.7.2zm92.1 31.4v-61.9h-21.9v61.9H257z" fill="currentColor"/>
    </symbol> -->
<!--     <symbol id="thumb-up" viewBox="157 349.5 100 95">
      <path d="M249.1 413.8c1.5-.3 2.8-1 3.8-2.1 1.4-1.4 2.2-3.3 2.2-5.3 0-4.2-3.4-7.6-7.6-7.6h2c2.1 0 4-.8 5.3-2.2 1.4-1.4 2.2-3.2 2.2-5.3 0-4.2-3.5-7.6-7.7-7.6h-21.1v-21c-.2-7.2-6.3-12.9-13.5-12.9h-5.5v12.3c0 2.4-.5 4.8-1.5 7.1l-5.8 12.4c-9.5 2.5-14.5 7.4-17.2 12.1V437l11.9 4.5c4.8 1.8 10 2.7 15.1 2.7h31.9c2.1 0 4-.8 5.3-2.2 1.4-1.4 2.2-3.3 2.2-5.3 0-4.2-3.4-7.6-7.6-7.6h2c2.1 0 4-.8 5.3-2.2 1.4-1.4 2.2-3.3 2.2-5.3 0-4.1-3.3-7.5-7.4-7.6h1.8c.6 0 1.2-.1 1.7-.2zM157 382.4v61.9h21.9v-61.9H157z" fill="currentColor"/>
    </symbol> -->
<!--     <symbol id="tick-circle" viewBox="0 0 18 18">
      <circle fill="currentColor" cx="9" cy="9" r="9"/><path fill="#FFF" d="M7.2 13.8L4 10.6l1.8-1.7 1.4 1.4 5.2-5.2 1.8 1.8z"/><path opacity=".25" d="M17.9 10.6l-3.7-3.7-6.9 6.9 3.9 3.9c3.4-.8 6-3.6 6.7-7.1z"/>
    </symbol> -->
<!--     <symbol id="tick" viewBox="0 0 15.8 11.5">
      <path fill="currentColor" d="M6.5 11.5L0 5l2.1-2.1 4.4 4.3L13.7 0l2.1 2.1z"/>
    </symbol> -->
<!--     <symbol id="twitter" viewBox="0 0 18 18">
      <g fill="none" fill-rule="evenodd"><path d="M-350-46h624v284h-624z"/><path fill="currentColor" d="M15.88 3.49a3.939 3.939 0 0 0 1.622-2.199 7.08 7.08 0 0 1-2.345.965C14.485 1.482 13.525 1 12.462 1 10.422 1 8.77 2.78 8.77 4.976c0 .311.03.615.094.905-3.068-.166-5.788-1.747-7.611-4.154-.318.59-.5 1.272-.5 2 0 1.378.652 2.595 1.643 3.31A3.507 3.507 0 0 1 .723 6.54v.049c0 1.927 1.272 3.534 2.963 3.898a3.446 3.446 0 0 1-1.668.07c.47 1.578 1.833 2.73 3.45 2.76C4.203 14.384 2.61 15.019.88 15.019c-.298 0-.593-.017-.881-.055 1.634 1.127 3.575 1.786 5.66 1.786 6.794 0 10.507-6.058 10.507-11.313 0-.172-.002-.344-.01-.514A7.823 7.823 0 0 0 18 2.864a6.969 6.969 0 0 1-2.12.626z" opacity=".9"/></g>
    </symbol> -->
  </svg>